<?xml version="1.0" encoding="UTF-8"?>
<svg id="Layer_1" xmlns="http://www.w3.org/2000/svg" xmlns:xlink="http://www.w3.org/1999/xlink" version="1.1" viewBox="0 0 1763.27 755.69">
  <!-- Generator: Adobe Illustrator 30.1.0, SVG Export Plug-In . SVG Version: 2.1.1 Build 136)  -->
  <defs>
    <style>
      .st0, .st1, .st2 {
        fill: none;
      }

      .st3 {
        filter: url(#drop-shadow-1);
      }

      .st1, .st2 {
        stroke: #f0d000;
        stroke-miterlimit: 10;
        stroke-width: 33.25px;
      }

      .st2 {
        stroke-linecap: square;
      }

      .st4 {
        clip-path: url(#clippath);
      }
    </style>
    <clipPath id="clippath">
      <rect class="st0" x="79.6" y="268.5" width="1604.07" height="218.69"/>
    </clipPath>
    <filter id="drop-shadow-1" x="49.21" y="197.02" width="1682.16" height="369.84" filterUnits="userSpaceOnUse">
      <feOffset dx="6.22" dy="6.22"/>
      <feGaussianBlur result="blur" stdDeviation="12.43"/>
      <feFlood flood-color="#000" flood-opacity=".3"/>
      <feComposite in2="blur" operator="in"/>
      <feComposite in="SourceGraphic"/>
    </filter>
  </defs>
  <g class="st4">
    <g class="st3">
      <g>
        <line class="st2" x1="351.18" y1="347.02" x2="376.61" y2="347.02"/>
        <line class="st2" x1="351.18" y1="285.47" x2="437.08" y2="285.47"/>
      </g>
      <g>
        <line class="st2" x1="1396.11" y1="347.02" x2="1370.68" y2="347.02"/>
        <line class="st2" x1="1396.11" y1="285.47" x2="1310.22" y2="285.47"/>
      </g>
      <polyline class="st2" points="282.39 285.47 282.39 470.83 97.03 285.47 97.03 470.63"/>
      <g>
        <line class="st2" x1="1531.86" y1="349.58" x2="1559.63" y2="349.58"/>
        <g>
          <line class="st1" x1="1463.57" y1="487.19" x2="1463.57" y2="285.23"/>
          <line class="st1" x1="1675.86" y1="505.87" x2="1584.55" y2="414.56"/>
          <path class="st1" d="M1463.57,285.91h109.34c35.33,0,64.01,28.68,64.01,64.01h0c0,35.33-28.68,64.01-64.01,64.01h-109.34v-128.03h0Z"/>
        </g>
      </g>
      <g>
        <polyline class="st2" points="334.25 495.48 561.23 268.5 780.47 487.74"/>
        <polyline class="st2" points="696.83 495.2 561.88 360.26 425.22 496.92"/>
      </g>
      <g>
        <polyline class="st2" points="953.21 499.69 1184.4 268.5 1410.1 494.2"/>
        <polyline class="st2" points="1318.54 493.74 1185.05 360.26 1047.36 497.95"/>
      </g>
      <g>
        <polyline class="st2" points="640.71 254.61 873.28 487.19 1107.89 252.58"/>
        <polyline class="st2" points="1017.57 251.79 873.94 395.43 730.39 251.88"/>
      </g>
    </g>
  </g>
  <g>
    <path d="M737.16,376.89c.7-.04,1.31.15,1.83.59.52.44.8,1,.85,1.7.04.7-.15,1.3-.59,1.83-11.05,12.96-19.79,18.23-26.23,15.79-4.61-1.74-7.09-7.26-7.44-16.57-1.22,2.26-3.13,6.05-5.74,11.35-1.48,3.22-2.48,5.27-3,6.13-2.26,4.35-4.7,6.18-7.31,5.48-3.57-.87-5.31-5.87-5.22-15.01,0-1.74.04-3.79.13-6.13-5.74,8.18-11.62,18.01-17.62,29.49-1.04,2-2.17,3-3.39,3-.43,0-.85-.11-1.24-.33-.39-.22-.7-.41-.91-.59-.22-.18-.43-.65-.65-1.44-.22-.78-.26-1.78-.13-3,.13-1.22.41-3,.85-5.35.44-2.35,1.09-5.17,1.96-8.48,2.78-11.14,6.13-21.1,10.05-29.89.26-.7.72-1.17,1.37-1.44.65-.26,1.3-.24,1.96.06.65.31,1.09.78,1.31,1.44.22.65.2,1.28-.07,1.89-4.35,9.83-7.92,20.75-10.7,32.76,5.22-9.22,10.61-17.7,16.18-25.45,1.22-1.74,2.56-2.35,4.04-1.83,1.04.35,1.65,1.07,1.83,2.15.17,1.09.22,3.24.13,6.46-.09,2.7-.13,4.92-.13,6.66,0,4.61.48,7.88,1.44,9.79.52-.52,1.13-1.39,1.83-2.61.43-.87,1.39-2.83,2.87-5.87,3.57-7.48,6.13-12.38,7.7-14.68,1.57-2.3,3.17-3.28,4.83-2.94,1.83.44,2.74,2.35,2.74,5.74-.09,8.53,1.3,13.36,4.18,14.49,1.74.61,4.39-.2,7.96-2.41,3.57-2.22,7.79-6.2,12.66-11.94.43-.52,1-.8,1.7-.85Z"/>
    <path d="M783.49,378.19c.7-.13,1.33-.02,1.89.33.57.35.93.87,1.11,1.57.17.7.09,1.31-.26,1.83-1.04,1.65-2.18,3.42-3.39,5.29-1.22,1.87-3.02,4.42-5.42,7.63-2.39,3.22-4.68,6.03-6.85,8.42-2.18,2.39-4.52,4.5-7.05,6.33-2.52,1.83-4.7,2.74-6.53,2.74-.7,0-1.3-.13-1.83-.39-4.18-1.57-5.35-8.22-3.52-19.97-2.87,3.92-5.48,6.87-7.83,8.88-3.39,2.87-6.35,3.22-8.88,1.04-2.35-1.91-3.41-5.31-3.2-10.18.22-4.87,1.63-9.57,4.24-14.09.35-.61.87-1,1.57-1.17.7-.17,1.35-.09,1.96.26.61.35,1,.85,1.17,1.5.17.65.09,1.28-.26,1.89-1.48,2.44-2.5,5-3.07,7.7-.57,2.7-.74,4.94-.52,6.72.22,1.78.63,2.94,1.24,3.46.43.44,1.26.13,2.48-.91,2.26-1.91,5.09-5.35,8.48-10.31.61-.78,1.06-1.37,1.37-1.76.3-.39.67-.87,1.11-1.44.43-.57.78-.93,1.04-1.11.26-.17.57-.37.91-.59.35-.22.7-.3,1.04-.26.35.04.74.15,1.17.33,1.13.44,1.74,1.42,1.83,2.94.08,1.52-.13,3.5-.65,5.94-.96,4.79-1.33,8.44-1.11,10.96.22,2.52.41,4.07.59,4.63.17.57.39.85.65.85.26.17.72.11,1.37-.2.65-.31,1.44-.8,2.35-1.5.91-.7,1.93-1.59,3.07-2.68,1.13-1.09,2.42-2.41,3.85-3.98s2.89-3.28,4.37-5.16c1.48-1.87,3.09-4.04,4.83-6.53,1.74-2.48,3.44-5.11,5.09-7.9.35-.61.87-.98,1.57-1.11Z"/>
    <path d="M838.44,376.56c.7-.17,1.33-.09,1.89.26.57.35.93.87,1.11,1.57.17.7.09,1.35-.26,1.96-2.87,4.61-5.61,8.72-8.22,12.33-2.61,3.61-4.85,6.53-6.72,8.74-1.87,2.22-3.68,4.09-5.42,5.61-1.74,1.52-3.13,2.61-4.18,3.26s-2.09,1.09-3.13,1.31c-1.04.22-1.76.3-2.15.26-.39-.04-.85-.11-1.37-.2-4.09-1.04-6.39-5.7-6.92-13.96-.09-1.83-.31-3.37-.65-4.63-.35-1.26-.65-2.09-.91-2.48s-.48-.59-.65-.59h-.13c-.7,0-1.65.54-2.87,1.63-1.22,1.09-2.7,2.85-4.44,5.29-1.74,2.44-3.57,5.4-5.48,8.88-1.92,3.48-4.03,7.87-6.33,13.18-2.31,5.31-4.54,11.05-6.72,17.23-.35,1.13-1.13,1.7-2.35,1.7h-.52c-.43-.09-.8-.26-1.11-.52-.3-.26-.54-.59-.72-.98-.17-.39-.22-.76-.13-1.11.18-3.57,2.46-15.03,6.85-34.39,4.39-19.36,8-34.93,10.83-46.72,2.83-11.79,5.02-20.82,6.59-27.08,2.96-12.01,6.37-22.25,10.24-30.73,3.87-8.48,7.2-12.99,9.98-13.51,1.48-.26,2.61.18,3.39,1.31,1.91,2.61.8,9.35-3.33,20.23-4.13,10.88-10.55,24.19-19.25,39.93-6.7,27.58-11.88,49.72-15.53,66.43,3.83-8.09,7.61-14.51,11.35-19.25,3.74-4.74,7.18-6.89,10.31-6.46,3.92.52,6.09,4.61,6.53,12.27.43,5.83,1.48,8.96,3.13,9.4.26.09.63.09,1.11,0,.48-.08,1.46-.61,2.94-1.57,1.48-.96,3.09-2.37,4.83-4.24,1.74-1.87,4.11-4.81,7.11-8.81,3-4,6.24-8.83,9.72-14.49.35-.52.87-.87,1.57-1.04ZM813.64,290.17c-4.79,6.87-9.27,18.23-13.44,34.06,7.65-15.4,12.14-26.75,13.44-34.06Z"/>
    <path d="M887.57,377.54c.65-.22,1.28-.17,1.89.13.61.31,1.02.78,1.24,1.44.22.65.2,1.28-.06,1.89-9.31,19.23-17.62,28.84-24.93,28.84-.44,0-.91-.04-1.44-.13-5.83-1.13-9.44-8.96-10.83-23.49-4.26,5.74-8.05,10.44-11.35,14.09-2.96,3.13-5.48,4.22-7.57,3.26-2.09-.78-3.09-3.04-3-6.79,0-3.13.7-6.87,2.09-11.22,1.39-4.35,3.44-8.57,6.13-12.66,2.7-4.09,5.61-6.66,8.74-7.7,4.61-1.65,8.87-.13,12.79,4.57.43.52.63,1.13.59,1.83-.04.7-.33,1.26-.85,1.7-.52.44-1.13.63-1.83.59-.7-.04-1.26-.33-1.7-.85-3.05-3.65-6.13-4.35-9.27-2.09-3.57,2.52-6.55,7.07-8.94,13.64-2.39,6.57-3.33,11.25-2.81,14.03.52-.43,1.13-1,1.83-1.7,3.48-3.74,7.74-9.09,12.79-16.05,1.13-1.57,1.91-2.65,2.35-3.26.7-.87,1.61-1.15,2.74-.85,1.13.31,1.74,1.07,1.83,2.28.17,4.26.52,8.05,1.04,11.35.52,3.31,1.04,5.81,1.57,7.5.52,1.7,1.13,3.11,1.83,4.24.7,1.13,1.24,1.85,1.63,2.15.39.31.8.46,1.24.46,1.22.26,2.76-.33,4.63-1.76,1.87-1.44,4.26-4.22,7.18-8.35,2.91-4.13,5.89-9.37,8.94-15.73.35-.69.85-1.15,1.5-1.37Z"/>
    <path d="M955.11,376.89c.7-.04,1.31.15,1.83.59.52.44.8,1,.85,1.7.04.7-.15,1.3-.59,1.83-11.05,12.96-19.79,18.23-26.23,15.79-4.61-1.74-7.09-7.26-7.44-16.57-1.22,2.26-3.13,6.05-5.74,11.35-1.48,3.22-2.48,5.27-3,6.13-2.26,4.35-4.7,6.18-7.31,5.48-3.57-.87-5.31-5.87-5.22-15.01,0-1.74.04-3.79.13-6.13-5.74,8.18-11.62,18.01-17.62,29.49-1.04,2-2.17,3-3.39,3-.43,0-.85-.11-1.24-.33-.39-.22-.7-.41-.91-.59-.22-.18-.43-.65-.65-1.44-.22-.78-.26-1.78-.13-3,.13-1.22.41-3,.85-5.35.44-2.35,1.09-5.17,1.96-8.48,2.78-11.14,6.13-21.1,10.05-29.89.26-.7.72-1.17,1.37-1.44.65-.26,1.3-.24,1.96.06.65.31,1.09.78,1.31,1.44.22.65.2,1.28-.07,1.89-4.35,9.83-7.92,20.75-10.7,32.76,5.22-9.22,10.61-17.7,16.18-25.45,1.22-1.74,2.56-2.35,4.04-1.83,1.04.35,1.65,1.07,1.83,2.15.17,1.09.22,3.24.13,6.46-.09,2.7-.13,4.92-.13,6.66,0,4.61.48,7.88,1.44,9.79.52-.52,1.13-1.39,1.83-2.61.43-.87,1.39-2.83,2.87-5.87,3.57-7.48,6.13-12.38,7.7-14.68,1.57-2.3,3.17-3.28,4.83-2.94,1.83.44,2.74,2.35,2.74,5.74-.09,8.53,1.3,13.36,4.18,14.49,1.74.61,4.39-.2,7.96-2.41,3.57-2.22,7.79-6.2,12.66-11.94.43-.52,1-.8,1.7-.85Z"/>
    <path d="M1023.1,376.89c.7-.04,1.31.15,1.83.59.52.44.8,1,.85,1.7.04.7-.15,1.3-.59,1.83-11.05,12.96-19.79,18.23-26.23,15.79-4.61-1.74-7.09-7.26-7.44-16.57-1.22,2.26-3.13,6.05-5.74,11.35-1.48,3.22-2.48,5.27-3,6.13-2.26,4.35-4.7,6.18-7.31,5.48-3.57-.87-5.31-5.87-5.22-15.01,0-1.74.04-3.79.13-6.13-5.74,8.18-11.62,18.01-17.62,29.49-1.04,2-2.17,3-3.39,3-.43,0-.85-.11-1.24-.33-.39-.22-.7-.41-.91-.59-.22-.18-.43-.65-.65-1.44-.22-.78-.26-1.78-.13-3,.13-1.22.41-3,.85-5.35.44-2.35,1.09-5.17,1.96-8.48,2.78-11.14,6.13-21.1,10.05-29.89.26-.7.72-1.17,1.37-1.44.65-.26,1.3-.24,1.96.06.65.31,1.09.78,1.31,1.44.22.65.2,1.28-.07,1.89-4.35,9.83-7.92,20.75-10.7,32.76,5.22-9.22,10.61-17.7,16.18-25.45,1.22-1.74,2.56-2.35,4.04-1.83,1.04.35,1.65,1.07,1.83,2.15.17,1.09.22,3.24.13,6.46-.09,2.7-.13,4.92-.13,6.66,0,4.61.48,7.88,1.44,9.79.52-.52,1.13-1.39,1.83-2.61.43-.87,1.39-2.83,2.87-5.87,3.57-7.48,6.13-12.38,7.7-14.68,1.57-2.3,3.17-3.28,4.83-2.94,1.83.44,2.74,2.35,2.74,5.74-.09,8.53,1.3,13.36,4.18,14.49,1.74.61,4.39-.2,7.96-2.41,3.57-2.22,7.79-6.2,12.66-11.94.43-.52,1-.8,1.7-.85Z"/>
    <path d="M1061.6,377.15c.7-.13,1.33,0,1.89.39.56.39.89.94.98,1.63.09.7-.04,1.3-.39,1.83-9.83,13.75-18.79,23.49-26.88,29.23-3.22,2.26-6.39,3.39-9.53,3.39-2.44,0-4.57-.65-6.39-1.96-1.04-.78-1.98-1.83-2.81-3.13-.83-1.3-1.54-3.13-2.15-5.48-.61-2.35-.72-5.44-.33-9.27.39-3.83,1.37-8.18,2.94-13.05v-.13c2.43-7.92,5.39-14.18,8.87-18.79,3.48-4.61,6.61-6.96,9.4-7.05,2-.09,3.31.78,3.92,2.61.96,2.52-.17,6.09-3.39,10.7-3.22,4.61-7.96,9.57-14.23,14.88-1.04,3.39-1.78,6.53-2.22,9.4-.44,2.87-.59,5.16-.46,6.85.13,1.7.43,3.18.91,4.44.48,1.26.91,2.15,1.3,2.67.39.52.8.96,1.24,1.31,2.61,1.91,5.96,1.39,10.05-1.57,7.66-5.39,16.18-14.7,25.58-27.93.43-.52,1-.85,1.7-.98ZM1036.28,360.25c-3.05,1.91-6.05,6.05-9,12.4,5.04-5.04,8.05-9.18,9-12.4Z"/>
    <path d="M1113.02,297.74c2.26,2.26,1.13,10.27-3.39,24.01-.35,1.04-.83,2.48-1.44,4.31-1.91,5.83-3.48,10.49-4.7,13.96-1.22,3.48-3.13,8.35-5.74,14.62-2.61,6.26-5.44,12.27-8.48,18.01-2.52,12.01-4.92,24.8-7.18,38.37-3.92,23.23-6,38.98-6.26,47.24.7-.26,1.39-.26,2.09,0,.61.35,1.02.85,1.24,1.5.22.65.2,1.28-.07,1.89-1.57,3.31-3.13,4.96-4.7,4.96-.35,0-.7-.04-1.04-.13-.96-.35-1.63-.98-2.02-1.89-.39-.91-.57-2.83-.52-5.74.04-2.92.41-7.2,1.11-12.86,1.04-9.05,2.78-20.97,5.22-35.76,1.39-8.09,2.83-15.96,4.31-23.62-2.7,4.35-5.57,8.7-8.61,13.05-5.74,8.35-10.75,11.35-15.01,9-2.78-2-4.13-5.55-4.05-10.64.09-5.09,1.35-10.24,3.79-15.46,2.87-6.09,6.26-10.57,10.18-13.44s7.39-3.85,10.44-2.94c3.04.91,4.78,3.2,5.22,6.85.43-.7.83-1.39,1.17-2.09,4.61-21.84,9.24-39.39,13.9-52.66,4.65-13.27,8.46-20.38,11.42-21.34,1.22-.43,2.26-.17,3.13.78ZM1068.78,396.79c4.09-5.92,7.83-11.83,11.22-17.75-1.31-.43-1.83-1.3-1.57-2.61.35-3.22-.22-5.04-1.7-5.48h-.78c-1.83,0-4.07,1.2-6.72,3.59-2.66,2.39-5.03,5.81-7.11,10.24-1.39,2.87-2.33,5.81-2.81,8.81-.48,3-.59,5.44-.33,7.31.26,1.87.74,2.98,1.44,3.33.26.18.67.15,1.24-.07.56-.22,1.5-.96,2.81-2.22,1.3-1.26,2.74-2.98,4.31-5.15ZM1104.8,320.18c1.74-5.31,3-9.83,3.78-13.57-4.26,8.96-8.83,22.93-13.7,41.89,2.44-5.92,5.26-13.88,8.48-23.88.61-1.91,1.09-3.39,1.44-4.44Z"/>
  </g>
</svg>